<svg width="17" height="18" viewBox="0 0 17 18" fill="none" xmlns="http://www.w3.org/2000/svg">
<path d="M8.56757 8.99458C7.4973 8.99458 6.58108 8.55795 5.81892 7.68469C5.05676 6.81143 4.67567 5.76166 4.67567 4.53537C4.67567 3.30909 5.05676 2.25932 5.81892 1.38606C6.58108 0.512802 7.4973 0.0761719 8.56757 0.0761719C9.63784 0.0761719 10.5541 0.512802 11.3162 1.38606C12.0784 2.25932 12.4595 3.30909 12.4595 4.53537C12.4595 5.76166 12.0784 6.81143 11.3162 7.68469C10.5541 8.55795 9.63784 8.99458 8.56757 8.99458ZM0.783783 17.913V14.7915C0.783783 14.1598 0.925837 13.579 1.20995 13.0491C1.4934 12.5199 1.87027 12.116 2.34054 11.8373C3.34595 11.2613 4.36757 10.8292 5.4054 10.5408C6.44324 10.2532 7.4973 10.1094 8.56757 10.1094C9.63784 10.1094 10.6919 10.2532 11.7297 10.5408C12.7676 10.8292 13.7892 11.2613 14.7946 11.8373C15.2649 12.116 15.6417 12.5199 15.9252 13.0491C16.2093 13.579 16.3514 14.1598 16.3514 14.7915V17.913H0.783783ZM2.72973 15.6834H14.4054V14.7915C14.4054 14.5872 14.361 14.4014 14.2721 14.2341C14.1826 14.0669 14.0649 13.9369 13.9189 13.844C13.0432 13.3423 12.1595 12.9659 11.2676 12.7147C10.3757 12.4642 9.47567 12.339 8.56757 12.339C7.65946 12.339 6.75946 12.4642 5.86757 12.7147C4.97568 12.9659 4.09189 13.3423 3.21622 13.844C3.07027 13.9369 2.95286 14.0669 2.864 14.2341C2.77449 14.4014 2.72973 14.5872 2.72973 14.7915V15.6834ZM8.56757 6.76498C9.1027 6.76498 9.56097 6.54647 9.94238 6.10947C10.3231 5.67321 10.5135 5.14852 10.5135 4.53537C10.5135 3.92223 10.3231 3.39753 9.94238 2.96128C9.56097 2.52427 9.1027 2.30577 8.56757 2.30577C8.03243 2.30577 7.57449 2.52427 7.19373 2.96128C6.81232 3.39753 6.62162 3.92223 6.62162 4.53537C6.62162 5.14852 6.81232 5.67321 7.19373 6.10947C7.57449 6.54647 8.03243 6.76498 8.56757 6.76498Z" fill="#DE9D9B"/>
</svg>
