<svg width="18" height="18" viewBox="0 0 18 18" fill="none" xmlns="http://www.w3.org/2000/svg">
<path d="M7.09125 2.10047C7.67646 0.230098 10.3235 0.2301 10.9088 2.10047L11.4798 3.92549C11.7409 4.7601 12.514 5.32827 13.3885 5.32827H15.3923C17.3114 5.32827 18.1288 7.76896 16.5968 8.92483L14.8475 10.2447C14.1729 10.7537 13.891 11.6319 14.1434 12.4384L14.7806 14.4752C15.3613 16.3312 13.2197 17.8403 11.6673 16.669L10.2046 15.5654C9.49161 15.0275 8.50839 15.0275 7.79542 15.5654L6.33271 16.669C4.78028 17.8403 2.63866 16.3312 3.21937 14.4752L3.85665 12.4384C4.10902 11.6318 3.82714 10.7537 3.15248 10.2447L1.40316 8.92483C-0.128834 7.76896 0.688612 5.32827 2.60774 5.32827H4.61147C5.48599 5.32827 6.25909 4.7601 6.52023 3.92549L7.09125 2.10047Z" fill="#F2CCCB"/>
</svg>
