<svg width="19" height="18" viewBox="0 0 19 18" fill="none" xmlns="http://www.w3.org/2000/svg">
<path d="M7.59789 1.8541C8.19659 0.0114818 10.8034 0.0114799 11.4021 1.8541L12.0819 3.9463C12.3497 4.77035 13.1176 5.32827 13.984 5.32827H16.1839C18.1213 5.32827 18.9269 7.8075 17.3595 8.9463L15.5797 10.2394C14.8788 10.7486 14.5854 11.6514 14.8532 12.4754L15.533 14.5676C16.1317 16.4102 14.0227 17.9425 12.4553 16.8037L10.6756 15.5106C9.9746 15.0014 9.0254 15.0014 8.32443 15.5106L6.5447 16.8037C4.97727 17.9425 2.86831 16.4102 3.46701 14.5676L4.14681 12.4754C4.41456 11.6514 4.12124 10.7486 3.42027 10.2394L1.64053 8.94631C0.0731072 7.8075 0.878657 5.32827 2.8161 5.32827H5.01597C5.88243 5.32827 6.65034 4.77035 6.91809 3.9463L7.59789 1.8541Z" fill="#F2CCCB"/>
</svg>
