<svg width="16" height="18" viewBox="0 0 16 18" fill="none" xmlns="http://www.w3.org/2000/svg">
<path d="M8 8.99458C6.9 8.99458 5.95833 8.55795 5.175 7.68469C4.39167 6.81143 4 5.76166 4 4.53537C4 3.30909 4.39167 2.25932 5.175 1.38606C5.95833 0.512802 6.9 0.0761719 8 0.0761719C9.1 0.0761719 10.0417 0.512802 10.825 1.38606C11.6083 2.25932 12 3.30909 12 4.53537C12 5.76166 11.6083 6.81143 10.825 7.68469C10.0417 8.55795 9.1 8.99458 8 8.99458ZM0 17.913V14.7915C0 14.1598 0.146 13.579 0.438 13.0491C0.729334 12.5199 1.11667 12.116 1.6 11.8373C2.63333 11.2613 3.68333 10.8292 4.75 10.5408C5.81667 10.2532 6.9 10.1094 8 10.1094C9.1 10.1094 10.1833 10.2532 11.25 10.5408C12.3167 10.8292 13.3667 11.2613 14.4 11.8373C14.8833 12.116 15.2707 12.5199 15.562 13.0491C15.854 13.579 16 14.1598 16 14.7915V17.913H0ZM2 15.6834H14V14.7915C14 14.5872 13.9543 14.4014 13.863 14.2341C13.771 14.0669 13.65 13.9369 13.5 13.844C12.6 13.3423 11.6917 12.9659 10.775 12.7147C9.85833 12.4642 8.93333 12.339 8 12.339C7.06667 12.339 6.14167 12.4642 5.225 12.7147C4.30833 12.9659 3.4 13.3423 2.5 13.844C2.35 13.9369 2.22933 14.0669 2.138 14.2341C2.046 14.4014 2 14.5872 2 14.7915V15.6834ZM8 6.76498C8.55 6.76498 9.021 6.54647 9.413 6.10947C9.80433 5.67321 10 5.14852 10 4.53537C10 3.92223 9.80433 3.39753 9.413 2.96128C9.021 2.52427 8.55 2.30577 8 2.30577C7.45 2.30577 6.97933 2.52427 6.588 2.96128C6.196 3.39753 6 3.92223 6 4.53537C6 5.14852 6.196 5.67321 6.588 6.10947C6.97933 6.54647 7.45 6.76498 8 6.76498Z" fill="#DE9D9B"/>
</svg>
