<svg width="16" height="19" viewBox="0 0 16 19" fill="none" xmlns="http://www.w3.org/2000/svg">
<path d="M8 9.10884C6.9 9.10884 5.95833 8.6722 5.175 7.79894C4.39167 6.92568 4 5.87591 4 4.64963C4 3.42335 4.39167 2.37358 5.175 1.50032C5.95833 0.62706 6.9 0.19043 8 0.19043C9.1 0.19043 10.0417 0.62706 10.825 1.50032C11.6083 2.37358 12 3.42335 12 4.64963C12 5.87591 11.6083 6.92568 10.825 7.79894C10.0417 8.6722 9.1 9.10884 8 9.10884ZM0 18.0272V14.9058C0 14.2741 0.146 13.6933 0.438 13.1634C0.729334 12.6342 1.11667 12.2303 1.6 11.9516C2.63333 11.3756 3.68333 10.9434 4.75 10.6551C5.81667 10.3674 6.9 10.2236 8 10.2236C9.1 10.2236 10.1833 10.3674 11.25 10.6551C12.3167 10.9434 13.3667 11.3756 14.4 11.9516C14.8833 12.2303 15.2707 12.6342 15.562 13.1634C15.854 13.6933 16 14.2741 16 14.9058V18.0272H0ZM2 15.7976H14V14.9058C14 14.7014 13.9543 14.5156 13.863 14.3484C13.771 14.1812 13.65 14.0511 13.5 13.9582C12.6 13.4566 11.6917 13.0801 10.775 12.8289C9.85833 12.5785 8.93333 12.4532 8 12.4532C7.06667 12.4532 6.14167 12.5785 5.225 12.8289C4.30833 13.0801 3.4 13.4566 2.5 13.9582C2.35 14.0511 2.22933 14.1812 2.138 14.3484C2.046 14.5156 2 14.7014 2 14.9058V15.7976ZM8 6.87923C8.55 6.87923 9.021 6.66073 9.413 6.22373C9.80433 5.78747 10 5.26277 10 4.64963C10 4.03649 9.80433 3.51179 9.413 3.07553C9.021 2.63853 8.55 2.42003 8 2.42003C7.45 2.42003 6.97933 2.63853 6.588 3.07553C6.196 3.51179 6 4.03649 6 4.64963C6 5.26277 6.196 5.78747 6.588 6.22373C6.97933 6.66073 7.45 6.87923 8 6.87923Z" fill="#DE9D9B"/>
</svg>
